<?xml version="1.0" standalone="no"?>
<!DOCTYPE svg PUBLIC "-//W3C//DTD SVG 20010904//EN"
 "http://www.w3.org/TR/2001/REC-SVG-20010904/DTD/svg10.dtd">
<svg version="1.0" xmlns="http://www.w3.org/2000/svg"
 width="330.000000pt" height="51.000000pt" viewBox="0 0 330.000000 51.000000"
 preserveAspectRatio="xMidYMid meet">

<g transform="translate(0.000000,51.000000) scale(0.100000,-0.100000)"
fill="CurrentColor" stroke="none">
<path d="M782 496 c-120 -30 -174 -100 -180 -229 -4 -68 -1 -84 23 -133 32
-66 74 -97 165 -120 134 -34 298 -4 368 69 56 58 77 167 51 261 -15 54 -80
121 -137 141 -63 23 -221 28 -290 11z m233 -131 c40 -20 55 -51 55 -115 0 -41
-5 -56 -29 -82 -27 -30 -34 -33 -106 -36 -90 -5 -147 9 -168 41 -40 62 -27
155 26 187 41 25 172 28 222 5z"/>
<path d="M0 255 l0 -245 75 0 75 0 0 60 0 60 89 0 90 0 36 -60 36 -60 85 0
c47 0 83 3 81 8 -2 4 -21 36 -43 71 l-38 63 27 20 c84 61 89 206 11 280 -48
44 -72 48 -305 48 l-219 0 0 -245z m404 115 c22 -8 26 -16 26 -49 0 -30 -5
-43 -19 -51 -11 -5 -74 -10 -140 -10 l-121 0 0 60 0 60 114 0 c63 0 126 -4
140 -10z"/>
<path d="M1240 255 l0 -245 75 0 75 0 0 48 c0 48 0 49 66 96 l65 47 101 -96
101 -95 99 0 c54 0 98 2 98 4 0 2 -63 61 -140 131 -77 70 -140 131 -140 134 0
4 28 28 63 53 34 25 100 73 146 107 l85 61 -115 0 -114 0 -157 -115 -158 -114
0 114 0 115 -75 0 -75 0 0 -245z"/>
<path d="M2168 428 c-21 -40 -78 -151 -127 -245 l-91 -173 80 0 79 0 27 50 27
50 133 0 134 0 25 -50 25 -50 80 0 c44 0 80 2 80 4 0 2 -57 112 -126 245
l-126 241 -92 0 -92 0 -36 -72z m167 -128 c19 -38 35 -72 35 -75 0 -3 -34 -5
-75 -5 l-75 0 37 75 c21 41 39 75 40 75 2 0 19 -31 38 -70z"/>
<path d="M2660 255 l0 -245 75 0 75 0 2 161 3 162 148 -162 148 -161 95 0 94
0 0 245 0 245 -75 0 -75 0 -2 -163 -3 -163 -149 163 -149 163 -94 0 -93 0 0
-245z"/>
</g>
</svg>
